<?xml version="1.0" encoding="utf-8"?>
<!-- Generator: Adobe Illustrator 16.0.0, SVG Export Plug-In . SVG Version: 6.00 Build 0)  -->
<!DOCTYPE svg PUBLIC "-//W3C//DTD SVG 1.1//EN" "http://www.w3.org/Graphics/SVG/1.1/DTD/svg11.dtd">
<svg version="1.1" id="Layer_1" xmlns="http://www.w3.org/2000/svg" xmlns:xlink="http://www.w3.org/1999/xlink" x="0px" y="0px"
	 width="612px" height="212.668px" viewBox="0 222.5 612 212.668" enable-background="new 0 222.5 612 212.668"
	 xml:space="preserve">
<rect x="213.009" y="337.309" opacity="0.7" fill="none" width="131.902" height="131.902"/>
<g opacity="0.7">
	<polygon fill="#FFFFFF" points="213.302,458.746 204.286,444.222 222.313,444.222 	"/>
	<polygon fill="#FFFFFF" points="243.212,441.325 234.201,426.796 252.229,426.796 	"/>
	<polygon fill="#FFFFFF" points="253.404,423.684 244.392,409.16 262.415,409.16 	"/>
	<polygon fill="#FFFFFF" points="253.296,458.746 244.284,444.222 262.307,444.222 	"/>
	<polygon fill="#FFFFFF" points="283.866,476.332 274.854,461.802 292.872,461.802 	"/>
	<polygon fill="#FFFFFF" points="223.16,405.388 214.146,390.857 232.176,390.857 	"/>
	<polygon fill="#FFFFFF" points="253.291,427.455 262.307,441.98 244.284,441.98 	"/>
	<polygon fill="#FFFFFF" points="263.646,410.194 272.664,424.729 254.63,424.729 	"/>
	<polygon fill="#FFFFFF" points="243.269,410.524 252.281,425.055 234.257,425.055 	"/>
	<polygon fill="#FFFFFF" points="243.486,374.911 252.497,389.44 234.474,389.44 	"/>
	<polygon fill="#FFFFFF" points="233.401,392.444 242.418,406.974 224.395,406.974 	"/>
	<polygon fill="#FFFFFF" points="293.449,392.341 302.465,406.866 284.442,406.866 	"/>
	<polygon fill="#FFFFFF" points="253.569,462.708 262.581,477.238 244.557,477.238 	"/>
	<polygon fill="#FFFFFF" points="223.268,410.009 242.362,442.103 204.177,442.103 	"/>
	<polygon fill="#FFFFFF" points="273.396,427.596 292.49,459.689 254.306,459.689 	"/>
	<polygon fill="#FFFFFF" points="283.597,440.799 264.502,408.706 302.682,408.706 	"/>
	<polygon fill="#FFFFFF" points="248.396,485.044 244.583,478.897 252.203,478.897 	"/>
	<polygon fill="#FFFFFF" points="228.342,414.944 224.53,408.804 232.155,408.804 	"/>
	<polygon fill="#FFFFFF" points="238.369,414.944 234.557,408.804 242.182,408.804 	"/>
	<polygon fill="#FFFFFF" points="233.603,423.817 229.785,417.676 237.41,417.676 	"/>
	<polygon fill="#FFFFFF" points="263.513,441.572 259.7,435.421 267.325,435.421 	"/>
	<polygon fill="#FFFFFF" points="258.093,432.371 254.274,426.219 261.9,426.219 	"/>
	<polygon fill="#FFFFFF" points="268.279,432.371 264.466,426.219 272.086,426.219 	"/>
	<polygon fill="#FFFFFF" points="263.678,476.413 259.865,470.268 267.491,470.268 	"/>
	<polygon fill="#FFFFFF" points="258.422,467.377 254.604,461.234 262.23,461.234 	"/>
	<polygon fill="#FFFFFF" points="268.444,467.377 264.631,461.234 272.25,461.234 	"/>
	<polygon fill="#FFFFFF" points="243.243,405.856 239.425,399.705 247.051,399.705 	"/>
	<polygon fill="#FFFFFF" points="238.421,397.53 234.607,391.378 242.233,391.378 	"/>
	<polygon fill="#FFFFFF" points="248.396,397.53 244.583,391.378 252.203,391.378 	"/>
	<polygon fill="#FFFFFF" points="222.973,388.977 219.161,382.835 226.787,382.835 	"/>
	<polygon fill="#FFFFFF" points="248.282,379.775 244.47,373.633 252.095,373.633 	"/>
	<polygon fill="#FFFFFF" points="233.351,409.869 237.164,416.017 229.537,416.017 	"/>
	<polygon fill="#FFFFFF" points="263.76,427.455 267.573,433.607 259.948,433.607 	"/>
	<polygon fill="#FFFFFF" points="263.431,462.131 267.243,468.279 259.618,468.279 	"/>
	<polygon fill="#FFFFFF" points="288.41,435.997 292.228,442.149 284.597,442.149 	"/>
	<polygon fill="#FFFFFF" points="243.429,391.79 247.242,397.938 239.617,397.938 	"/>
	<polygon fill="#FFFFFF" points="279.697,400.992 283.514,407.14 275.889,407.14 	"/>
	<polygon fill="#FFFFFF" points="228.312,383.026 232.125,389.178 224.499,389.178 	"/>
</g>
<g opacity="0.7">
	<polygon fill="#FFFFFF" points="264.141,406.599 255.124,392.063 273.158,392.063 	"/>
	<polygon fill="#FFFFFF" points="294.056,389.173 285.041,374.643 303.073,374.643 	"/>
	<polygon fill="#FFFFFF" points="304.248,371.526 295.236,357 313.254,357 	"/>
	<polygon fill="#FFFFFF" points="304.134,406.599 295.118,392.063 313.142,392.063 	"/>
	<polygon fill="#FFFFFF" points="304.13,375.303 313.142,389.833 295.118,389.833 	"/>
	<polygon fill="#FFFFFF" points="294.319,322.758 303.342,337.292 285.308,337.292 	"/>
	<polygon fill="#FFFFFF" points="304.403,410.551 313.42,425.085 295.396,425.085 	"/>
	<polygon fill="#FFFFFF" points="299.24,432.887 295.417,426.743 303.042,426.743 	"/>
	<polygon fill="#FFFFFF" points="279.181,362.797 275.369,356.645 282.995,356.645 	"/>
	<polygon fill="#FFFFFF" points="289.208,362.797 285.391,356.645 293.016,356.645 	"/>
	<polygon fill="#FFFFFF" points="284.442,371.67 280.629,365.518 288.255,365.518 	"/>
	<polygon fill="#FFFFFF" points="314.347,389.416 310.544,383.272 318.165,383.272 	"/>
	<polygon fill="#FFFFFF" points="308.927,380.212 305.114,374.071 312.738,374.071 	"/>
	<polygon fill="#FFFFFF" points="319.118,380.212 315.306,374.071 322.932,374.071 	"/>
	<polygon fill="#FFFFFF" points="314.522,424.266 310.704,418.113 318.325,418.113 	"/>
	<polygon fill="#FFFFFF" points="309.256,415.223 305.443,409.077 313.069,409.077 	"/>
	<polygon fill="#FFFFFF" points="319.283,415.223 315.47,409.077 323.096,409.077 	"/>
	<polygon fill="#FFFFFF" points="294.077,353.698 290.264,347.552 297.896,347.552 	"/>
	<polygon fill="#FFFFFF" points="299.24,345.372 295.417,339.23 303.042,339.23 	"/>
	<polygon fill="#FFFFFF" points="273.813,336.829 270.005,330.683 277.625,330.683 	"/>
	<polygon fill="#FFFFFF" points="299.122,327.627 295.313,321.475 302.935,321.475 	"/>
	<polygon fill="#FFFFFF" points="284.184,357.717 288.007,363.859 280.377,363.859 	"/>
	<polygon fill="#FFFFFF" points="314.265,409.979 318.077,416.125 310.451,416.125 	"/>
	<polygon fill="#FFFFFF" points="339.249,383.845 343.062,389.997 335.44,389.997 	"/>
	<polygon fill="#FFFFFF" points="294.268,339.642 298.086,345.784 290.46,345.784 	"/>
	<polygon fill="#FFFFFF" points="330.536,348.845 334.358,354.986 326.728,354.986 	"/>
	<polygon fill="#FFFFFF" points="279.151,330.878 282.969,337.03 275.343,337.03 	"/>
</g>
<rect x="213.009" y="337.309" opacity="0.7" fill="none" width="131.902" height="131.902"/>
<rect x="213.009" y="337.309" opacity="0.7" fill="none" width="131.902" height="131.902"/>
<rect x="294.705" y="337.309" opacity="0.7" fill="none" width="131.903" height="131.902"/>
<g opacity="0.7">
	<polygon fill="#FFFFFF" points="426.314,458.746 435.331,444.222 417.304,444.222 	"/>
	<polygon fill="#FFFFFF" points="396.404,441.325 405.416,426.796 387.388,426.796 	"/>
	<polygon fill="#FFFFFF" points="386.213,423.684 395.226,409.16 377.202,409.16 	"/>
	<polygon fill="#FFFFFF" points="386.321,458.746 395.334,444.222 377.311,444.222 	"/>
	<polygon fill="#FFFFFF" points="355.752,476.332 364.764,461.802 346.745,461.802 	"/>
	<polygon fill="#FFFFFF" points="416.458,405.388 425.471,390.857 407.441,390.857 	"/>
	<polygon fill="#FFFFFF" points="386.326,427.455 377.311,441.98 395.334,441.98 	"/>
	<polygon fill="#FFFFFF" points="375.971,410.194 366.954,424.729 384.987,424.729 	"/>
	<polygon fill="#FFFFFF" points="396.349,410.524 387.337,425.055 405.359,425.055 	"/>
	<polygon fill="#FFFFFF" points="396.132,374.911 387.12,389.44 405.144,389.44 	"/>
	<polygon fill="#FFFFFF" points="406.216,392.444 397.198,406.974 415.223,406.974 	"/>
	<polygon fill="#FFFFFF" points="346.168,392.341 337.151,406.866 355.176,406.866 	"/>
	<polygon fill="#FFFFFF" points="386.049,462.708 377.037,477.238 395.061,477.238 	"/>
	<polygon fill="#FFFFFF" points="416.35,410.009 397.256,442.103 435.44,442.103 	"/>
	<polygon fill="#FFFFFF" points="366.222,427.596 347.127,459.689 385.311,459.689 	"/>
	<polygon fill="#FFFFFF" points="356.02,440.799 375.115,408.706 336.936,408.706 	"/>
	<polygon fill="#FFFFFF" points="391.222,485.044 395.034,478.897 387.414,478.897 	"/>
	<polygon fill="#FFFFFF" points="411.275,414.944 415.088,408.804 407.462,408.804 	"/>
	<polygon fill="#FFFFFF" points="401.248,414.944 405.061,408.804 397.436,408.804 	"/>
	<polygon fill="#FFFFFF" points="406.015,423.817 409.833,417.676 402.207,417.676 	"/>
	<polygon fill="#FFFFFF" points="376.104,441.572 379.917,435.421 372.292,435.421 	"/>
	<polygon fill="#FFFFFF" points="381.524,432.371 385.343,426.219 377.717,426.219 	"/>
	<polygon fill="#FFFFFF" points="371.339,432.371 375.151,426.219 367.53,426.219 	"/>
	<polygon fill="#FFFFFF" points="375.939,476.413 379.753,470.268 372.127,470.268 	"/>
	<polygon fill="#FFFFFF" points="381.195,467.377 385.013,461.234 377.388,461.234 	"/>
	<polygon fill="#FFFFFF" points="371.173,467.377 374.986,461.234 367.366,461.234 	"/>
	<polygon fill="#FFFFFF" points="396.373,405.856 400.191,399.705 392.566,399.705 	"/>
	<polygon fill="#FFFFFF" points="401.196,397.53 405.01,391.378 397.385,391.378 	"/>
	<polygon fill="#FFFFFF" points="391.222,397.53 395.034,391.378 387.414,391.378 	"/>
	<polygon fill="#FFFFFF" points="416.645,388.977 420.457,382.835 412.83,382.835 	"/>
	<polygon fill="#FFFFFF" points="391.336,379.775 395.147,373.633 387.522,373.633 	"/>
	<polygon fill="#FFFFFF" points="406.268,409.869 402.454,416.017 410.08,416.017 	"/>
	<polygon fill="#FFFFFF" points="375.857,427.455 372.044,433.607 379.669,433.607 	"/>
	<polygon fill="#FFFFFF" points="376.187,462.131 372.373,468.279 380,468.279 	"/>
	<polygon fill="#FFFFFF" points="351.208,435.997 347.39,442.149 355.021,442.149 	"/>
	<polygon fill="#FFFFFF" points="396.188,391.79 392.375,397.938 400.001,397.938 	"/>
	<polygon fill="#FFFFFF" points="359.92,400.992 356.103,407.14 363.729,407.14 	"/>
	<polygon fill="#FFFFFF" points="411.306,383.026 407.493,389.178 415.119,389.178 	"/>
</g>
<g opacity="0.7">
	<polygon fill="#FFFFFF" points="375.477,406.599 384.492,392.063 366.46,392.063 	"/>
	<polygon fill="#FFFFFF" points="345.561,389.173 354.577,374.643 336.544,374.643 	"/>
	<polygon fill="#FFFFFF" points="335.369,371.526 344.381,357 326.363,357 	"/>
	<polygon fill="#FFFFFF" points="335.482,406.599 344.499,392.063 326.477,392.063 	"/>
	<polygon fill="#FFFFFF" points="335.488,375.303 326.477,389.833 344.499,389.833 	"/>
	<polygon fill="#FFFFFF" points="345.298,322.758 336.276,337.292 354.309,337.292 	"/>
	<polygon fill="#FFFFFF" points="335.214,410.551 326.198,425.085 344.221,425.085 	"/>
	<polygon fill="#FFFFFF" points="340.377,432.887 344.2,426.743 336.574,426.743 	"/>
	<polygon fill="#FFFFFF" points="360.437,362.797 364.248,356.645 356.623,356.645 	"/>
	<polygon fill="#FFFFFF" points="350.409,362.797 354.227,356.645 346.602,356.645 	"/>
	<polygon fill="#FFFFFF" points="355.176,371.67 358.988,365.518 351.362,365.518 	"/>
	<polygon fill="#FFFFFF" points="325.271,389.416 329.073,383.272 321.452,383.272 	"/>
	<polygon fill="#FFFFFF" points="330.69,380.212 334.504,374.071 326.877,374.071 	"/>
	<polygon fill="#FFFFFF" points="320.499,380.212 324.313,374.071 316.687,374.071 	"/>
	<polygon fill="#FFFFFF" points="325.095,424.266 328.914,418.113 321.293,418.113 	"/>
	<polygon fill="#FFFFFF" points="330.361,415.223 334.174,409.077 326.548,409.077 	"/>
	<polygon fill="#FFFFFF" points="320.334,415.223 324.147,409.077 316.521,409.077 	"/>
	<polygon fill="#FFFFFF" points="345.54,353.698 349.353,347.552 341.722,347.552 	"/>
	<polygon fill="#FFFFFF" points="340.377,345.372 344.2,339.23 336.574,339.23 	"/>
	<polygon fill="#FFFFFF" points="365.805,336.829 369.612,330.683 361.992,330.683 	"/>
	<polygon fill="#FFFFFF" points="340.495,327.627 344.304,321.475 336.683,321.475 	"/>
	<polygon fill="#FFFFFF" points="355.433,357.717 351.609,363.859 359.241,363.859 	"/>
	<polygon fill="#FFFFFF" points="325.353,409.979 321.54,416.125 329.165,416.125 	"/>
	<polygon fill="#FFFFFF" points="300.369,383.845 296.556,389.997 304.176,389.997 	"/>
	<polygon fill="#FFFFFF" points="345.35,339.642 341.531,345.784 349.157,345.784 	"/>
	<polygon fill="#FFFFFF" points="309.082,348.845 305.258,354.986 312.889,354.986 	"/>
	<polygon fill="#FFFFFF" points="360.466,330.878 356.649,337.03 364.274,337.03 	"/>
</g>
<rect x="294.705" y="337.309" opacity="0.7" fill="none" width="131.903" height="131.902"/>
<rect x="-0.005" y="337.309" opacity="0.7" fill="none" width="131.903" height="131.902"/>
<g opacity="0.7">
	<polygon fill="#FFFFFF" points="0.288,458.746 -8.729,444.222 9.3,444.222 	"/>
	<polygon fill="#FFFFFF" points="40.389,423.684 31.378,409.16 49.401,409.16 	"/>
	<polygon fill="#FFFFFF" points="40.281,458.746 31.271,444.222 49.293,444.222 	"/>
	<polygon fill="#FFFFFF" points="70.851,476.332 61.84,461.802 79.857,461.802 	"/>
	<polygon fill="#FFFFFF" points="10.145,405.388 1.132,390.857 19.162,390.857 	"/>
	<polygon fill="#FFFFFF" points="50.633,410.194 59.649,424.729 41.616,424.729 	"/>
	<polygon fill="#FFFFFF" points="30.255,410.524 39.266,425.055 21.243,425.055 	"/>
	<polygon fill="#FFFFFF" points="30.471,374.911 39.482,389.44 21.46,389.44 	"/>
	<polygon fill="#FFFFFF" points="20.387,392.444 29.404,406.974 11.381,406.974 	"/>
	<polygon fill="#FFFFFF" points="80.435,392.341 89.451,406.866 71.427,406.866 	"/>
	<polygon fill="#FFFFFF" points="40.555,462.708 49.566,477.238 31.542,477.238 	"/>
	<polygon fill="#FFFFFF" points="60.382,427.596 79.477,459.689 41.291,459.689 	"/>
	<polygon fill="#FFFFFF" points="35.381,485.044 31.568,478.897 39.189,478.897 	"/>
	<polygon fill="#FFFFFF" points="15.328,414.944 11.516,408.804 19.142,408.804 	"/>
	<polygon fill="#FFFFFF" points="25.354,414.944 21.542,408.804 29.167,408.804 	"/>
	<polygon fill="#FFFFFF" points="20.588,423.817 16.771,417.676 24.396,417.676 	"/>
	<polygon fill="#FFFFFF" points="50.499,441.572 46.686,435.421 54.312,435.421 	"/>
	<polygon fill="#FFFFFF" points="45.079,432.371 41.26,426.219 48.886,426.219 	"/>
	<polygon fill="#FFFFFF" points="55.265,432.371 51.452,426.219 59.072,426.219 	"/>
	<polygon fill="#FFFFFF" points="50.663,476.413 46.851,470.268 54.476,470.268 	"/>
	<polygon fill="#FFFFFF" points="45.408,467.377 41.59,461.234 49.215,461.234 	"/>
	<polygon fill="#FFFFFF" points="55.43,467.377 51.617,461.234 59.237,461.234 	"/>
	<polygon fill="#FFFFFF" points="30.229,405.856 26.411,399.705 34.037,399.705 	"/>
	<polygon fill="#FFFFFF" points="25.406,397.53 21.593,391.378 29.219,391.378 	"/>
	<polygon fill="#FFFFFF" points="35.381,397.53 31.568,391.378 39.189,391.378 	"/>
	<polygon fill="#FFFFFF" points="9.958,388.977 6.147,382.835 13.772,382.835 	"/>
	<polygon fill="#FFFFFF" points="35.269,379.775 31.455,373.633 39.081,373.633 	"/>
	<polygon fill="#FFFFFF" points="20.336,409.869 24.15,416.017 16.522,416.017 	"/>
	<polygon fill="#FFFFFF" points="50.746,427.455 54.559,433.607 46.934,433.607 	"/>
	<polygon fill="#FFFFFF" points="50.417,462.131 54.229,468.279 46.603,468.279 	"/>
	<polygon fill="#FFFFFF" points="75.396,435.997 79.213,442.149 71.583,442.149 	"/>
	<polygon fill="#FFFFFF" points="30.415,391.79 34.228,397.938 26.603,397.938 	"/>
	<polygon fill="#FFFFFF" points="66.683,400.992 70.5,407.14 62.875,407.14 	"/>
	<polygon fill="#FFFFFF" points="15.298,383.026 19.11,389.178 11.484,389.178 	"/>
</g>
<g opacity="0.7">
	<polygon fill="#FFFFFF" points="51.127,406.599 42.11,392.063 60.144,392.063 	"/>
	<polygon fill="#FFFFFF" points="81.042,389.173 72.026,374.643 90.059,374.643 	"/>
	<polygon fill="#FFFFFF" points="91.234,371.526 82.223,357 100.24,357 	"/>
	<polygon fill="#FFFFFF" points="91.12,406.599 82.104,392.063 100.126,392.063 	"/>
	<polygon fill="#FFFFFF" points="91.115,375.303 100.126,389.833 82.104,389.833 	"/>
	<polygon fill="#FFFFFF" points="81.306,322.758 90.327,337.292 72.294,337.292 	"/>
	<polygon fill="#FFFFFF" points="91.389,410.551 100.405,425.085 82.382,425.085 	"/>
	<polygon fill="#FFFFFF" points="86.226,432.887 82.403,426.743 90.028,426.743 	"/>
	<polygon fill="#FFFFFF" points="66.167,362.797 62.354,356.645 69.98,356.645 	"/>
	<polygon fill="#FFFFFF" points="76.193,362.797 72.376,356.645 80.001,356.645 	"/>
	<polygon fill="#FFFFFF" points="71.427,371.67 67.615,365.518 75.241,365.518 	"/>
	<polygon fill="#FFFFFF" points="101.333,389.416 97.53,383.272 105.15,383.272 	"/>
	<polygon fill="#FFFFFF" points="95.913,380.212 92.101,374.071 99.726,374.071 	"/>
	<polygon fill="#FFFFFF" points="106.104,380.212 102.292,374.071 109.917,374.071 	"/>
	<polygon fill="#FFFFFF" points="101.508,424.266 97.69,418.113 105.311,418.113 	"/>
	<polygon fill="#FFFFFF" points="96.242,415.223 92.43,409.077 100.056,409.077 	"/>
	<polygon fill="#FFFFFF" points="106.269,415.223 102.456,409.077 110.082,409.077 	"/>
	<polygon fill="#FFFFFF" points="81.063,353.698 77.25,347.552 84.881,347.552 	"/>
	<polygon fill="#FFFFFF" points="86.226,345.372 82.403,339.23 90.028,339.23 	"/>
	<polygon fill="#FFFFFF" points="60.799,336.829 56.991,330.683 64.611,330.683 	"/>
	<polygon fill="#FFFFFF" points="86.107,327.627 82.299,321.475 89.92,321.475 	"/>
	<polygon fill="#FFFFFF" points="71.17,357.717 74.993,363.859 67.363,363.859 	"/>
	<polygon fill="#FFFFFF" points="101.25,409.979 105.063,416.125 97.438,416.125 	"/>
	<polygon fill="#FFFFFF" points="126.234,383.845 130.048,389.997 122.427,389.997 	"/>
	<polygon fill="#FFFFFF" points="81.254,339.642 85.072,345.784 77.446,345.784 	"/>
	<polygon fill="#FFFFFF" points="117.521,348.845 121.344,354.986 113.714,354.986 	"/>
	<polygon fill="#FFFFFF" points="66.137,330.878 69.954,337.03 62.328,337.03 	"/>
</g>
<rect x="-0.005" y="337.309" opacity="0.7" fill="none" width="131.903" height="131.902"/>
<rect x="81.692" y="337.309" opacity="0.7" fill="none" width="131.902" height="131.902"/>
<g opacity="0.7">
	<polygon fill="#FFFFFF" points="213.3,458.746 222.317,444.222 204.289,444.222 	"/>
	<polygon fill="#FFFFFF" points="183.391,441.325 192.402,426.796 174.374,426.796 	"/>
	<polygon fill="#FFFFFF" points="173.199,423.684 182.211,409.16 164.188,409.16 	"/>
	<polygon fill="#FFFFFF" points="173.308,458.746 182.318,444.222 164.296,444.222 	"/>
	<polygon fill="#FFFFFF" points="142.738,476.332 151.749,461.802 133.731,461.802 	"/>
	<polygon fill="#FFFFFF" points="203.444,405.388 212.456,390.857 194.427,390.857 	"/>
	<polygon fill="#FFFFFF" points="173.313,427.455 164.296,441.98 182.318,441.98 	"/>
	<polygon fill="#FFFFFF" points="162.956,410.194 153.939,424.729 171.973,424.729 	"/>
	<polygon fill="#FFFFFF" points="183.334,410.524 174.323,425.055 192.346,425.055 	"/>
	<polygon fill="#FFFFFF" points="183.118,374.911 174.106,389.44 192.129,389.44 	"/>
	<polygon fill="#FFFFFF" points="193.202,392.444 184.185,406.974 202.208,406.974 	"/>
	<polygon fill="#FFFFFF" points="133.155,392.341 124.138,406.866 142.162,406.866 	"/>
	<polygon fill="#FFFFFF" points="173.035,462.708 164.022,477.238 182.046,477.238 	"/>
	<polygon fill="#FFFFFF" points="203.335,410.009 184.241,442.103 222.426,442.103 	"/>
	<polygon fill="#FFFFFF" points="153.208,427.596 134.112,459.689 172.297,459.689 	"/>
	<polygon fill="#FFFFFF" points="143.006,440.799 162.101,408.706 123.921,408.706 	"/>
	<polygon fill="#FFFFFF" points="178.208,485.044 182.02,478.897 174.4,478.897 	"/>
	<polygon fill="#FFFFFF" points="198.261,414.944 202.074,408.804 194.447,408.804 	"/>
	<polygon fill="#FFFFFF" points="188.234,414.944 192.047,408.804 184.422,408.804 	"/>
	<polygon fill="#FFFFFF" points="193,423.817 196.818,417.676 189.192,417.676 	"/>
	<polygon fill="#FFFFFF" points="163.09,441.572 166.903,435.421 159.277,435.421 	"/>
	<polygon fill="#FFFFFF" points="168.51,432.371 172.329,426.219 164.704,426.219 	"/>
	<polygon fill="#FFFFFF" points="158.325,432.371 162.137,426.219 154.517,426.219 	"/>
	<polygon fill="#FFFFFF" points="162.926,476.413 166.738,470.268 159.113,470.268 	"/>
	<polygon fill="#FFFFFF" points="168.181,467.377 171.999,461.234 164.374,461.234 	"/>
	<polygon fill="#FFFFFF" points="158.16,467.377 161.972,461.234 154.352,461.234 	"/>
	<polygon fill="#FFFFFF" points="183.36,405.856 187.178,399.705 179.552,399.705 	"/>
	<polygon fill="#FFFFFF" points="188.183,397.53 191.996,391.378 184.37,391.378 	"/>
	<polygon fill="#FFFFFF" points="178.208,397.53 182.02,391.378 174.4,391.378 	"/>
	<polygon fill="#FFFFFF" points="203.63,388.977 207.442,382.835 199.817,382.835 	"/>
	<polygon fill="#FFFFFF" points="178.321,379.775 182.134,373.633 174.508,373.633 	"/>
	<polygon fill="#FFFFFF" points="193.253,409.869 189.439,416.017 197.066,416.017 	"/>
	<polygon fill="#FFFFFF" points="162.843,427.455 159.03,433.607 166.655,433.607 	"/>
	<polygon fill="#FFFFFF" points="163.172,462.131 159.359,468.279 166.986,468.279 	"/>
	<polygon fill="#FFFFFF" points="138.193,435.997 134.376,442.149 142.006,442.149 	"/>
	<polygon fill="#FFFFFF" points="183.174,391.79 179.362,397.938 186.987,397.938 	"/>
	<polygon fill="#FFFFFF" points="146.907,400.992 143.089,407.14 150.714,407.14 	"/>
	<polygon fill="#FFFFFF" points="198.292,383.026 194.479,389.178 202.104,389.178 	"/>
</g>
<g opacity="0.7">
	<polygon fill="#FFFFFF" points="162.462,406.599 171.479,392.063 153.445,392.063 	"/>
	<polygon fill="#FFFFFF" points="132.547,389.173 141.563,374.643 123.53,374.643 	"/>
	<polygon fill="#FFFFFF" points="122.355,371.526 131.366,357 113.349,357 	"/>
	<polygon fill="#FFFFFF" points="122.469,406.599 131.485,392.063 113.462,392.063 	"/>
	<polygon fill="#FFFFFF" points="122.474,375.303 113.462,389.833 131.485,389.833 	"/>
	<polygon fill="#FFFFFF" points="132.283,322.758 123.262,337.292 141.295,337.292 	"/>
	<polygon fill="#FFFFFF" points="122.2,410.551 113.184,425.085 131.207,425.085 	"/>
	<polygon fill="#FFFFFF" points="127.363,432.887 131.187,426.743 123.561,426.743 	"/>
	<polygon fill="#FFFFFF" points="147.422,362.797 151.235,356.645 143.609,356.645 	"/>
	<polygon fill="#FFFFFF" points="137.396,362.797 141.213,356.645 133.587,356.645 	"/>
	<polygon fill="#FFFFFF" points="142.162,371.67 145.974,365.518 138.348,365.518 	"/>
	<polygon fill="#FFFFFF" points="112.256,389.416 116.059,383.272 108.438,383.272 	"/>
	<polygon fill="#FFFFFF" points="117.676,380.212 121.489,374.071 113.864,374.071 	"/>
	<polygon fill="#FFFFFF" points="107.485,380.212 111.297,374.071 103.672,374.071 	"/>
	<polygon fill="#FFFFFF" points="112.081,424.266 115.899,418.113 108.278,418.113 	"/>
	<polygon fill="#FFFFFF" points="117.347,415.223 121.16,409.077 113.534,409.077 	"/>
	<polygon fill="#FFFFFF" points="107.32,415.223 111.133,409.077 103.507,409.077 	"/>
	<polygon fill="#FFFFFF" points="132.526,353.698 136.338,347.552 128.708,347.552 	"/>
	<polygon fill="#FFFFFF" points="127.363,345.372 131.187,339.23 123.561,339.23 	"/>
	<polygon fill="#FFFFFF" points="152.79,336.829 156.598,330.683 148.978,330.683 	"/>
	<polygon fill="#FFFFFF" points="127.481,327.627 131.29,321.475 123.669,321.475 	"/>
	<polygon fill="#FFFFFF" points="142.418,357.717 138.596,363.859 146.227,363.859 	"/>
	<polygon fill="#FFFFFF" points="112.338,409.979 108.526,416.125 116.151,416.125 	"/>
	<polygon fill="#FFFFFF" points="87.354,383.845 83.542,389.997 91.162,389.997 	"/>
	<polygon fill="#FFFFFF" points="132.335,339.642 128.517,345.784 136.143,345.784 	"/>
	<polygon fill="#FFFFFF" points="96.067,348.845 92.245,354.986 99.875,354.986 	"/>
	<polygon fill="#FFFFFF" points="147.452,330.878 143.635,337.03 151.261,337.03 	"/>
</g>
<rect x="81.692" y="337.309" opacity="0.7" fill="none" width="131.902" height="131.902"/>
<rect x="81.692" y="337.309" opacity="0.7" fill="none" width="131.902" height="131.902"/>
<rect x="657.178" y="337.309" opacity="0.7" fill="none" width="131.901" height="131.902"/>
<g opacity="0.7">
	<polygon fill="#FFFFFF" points="657.471,458.746 648.453,444.222 666.481,444.222 	"/>
	<polygon fill="#FFFFFF" points="687.38,441.325 678.369,426.796 696.396,426.796 	"/>
	<polygon fill="#FFFFFF" points="697.572,423.684 688.56,409.16 706.582,409.16 	"/>
	<polygon fill="#FFFFFF" points="697.464,458.746 688.452,444.222 706.475,444.222 	"/>
	<polygon fill="#FFFFFF" points="728.033,476.332 719.021,461.802 737.039,461.802 	"/>
	<polygon fill="#FFFFFF" points="667.328,405.388 658.314,390.857 676.344,390.857 	"/>
	<polygon fill="#FFFFFF" points="697.459,427.455 706.475,441.98 688.452,441.98 	"/>
	<polygon fill="#FFFFFF" points="707.814,410.194 716.831,424.729 698.798,424.729 	"/>
	<polygon fill="#FFFFFF" points="687.437,410.524 696.448,425.055 678.425,425.055 	"/>
	<polygon fill="#FFFFFF" points="687.654,374.911 696.664,389.44 678.642,389.44 	"/>
	<polygon fill="#FFFFFF" points="677.568,392.444 686.587,406.974 668.563,406.974 	"/>
	<polygon fill="#FFFFFF" points="737.616,392.341 746.633,406.866 728.609,406.866 	"/>
	<polygon fill="#FFFFFF" points="697.736,462.708 706.749,477.238 688.725,477.238 	"/>
	<polygon fill="#FFFFFF" points="667.436,410.009 686.53,442.103 648.346,442.103 	"/>
	<polygon fill="#FFFFFF" points="717.563,427.596 736.658,459.689 698.474,459.689 	"/>
	<polygon fill="#FFFFFF" points="727.765,440.799 708.67,408.706 746.85,408.706 	"/>
	<polygon fill="#FFFFFF" points="692.563,485.044 688.751,478.897 696.371,478.897 	"/>
	<polygon fill="#FFFFFF" points="672.51,414.944 668.697,408.804 676.323,408.804 	"/>
	<polygon fill="#FFFFFF" points="682.537,414.944 678.724,408.804 686.35,408.804 	"/>
	<polygon fill="#FFFFFF" points="677.771,423.817 673.953,417.676 681.578,417.676 	"/>
	<polygon fill="#FFFFFF" points="707.682,441.572 703.867,435.421 711.493,435.421 	"/>
	<polygon fill="#FFFFFF" points="702.261,432.371 698.441,426.219 706.068,426.219 	"/>
	<polygon fill="#FFFFFF" points="712.447,432.371 708.634,426.219 716.254,426.219 	"/>
	<polygon fill="#FFFFFF" points="707.846,476.413 704.032,470.268 711.658,470.268 	"/>
	<polygon fill="#FFFFFF" points="702.59,467.377 698.771,461.234 706.398,461.234 	"/>
	<polygon fill="#FFFFFF" points="712.611,467.377 708.799,461.234 716.418,461.234 	"/>
	<polygon fill="#FFFFFF" points="687.41,405.856 683.594,399.705 691.219,399.705 	"/>
	<polygon fill="#FFFFFF" points="682.589,397.53 678.775,391.378 686.401,391.378 	"/>
	<polygon fill="#FFFFFF" points="692.563,397.53 688.751,391.378 696.371,391.378 	"/>
	<polygon fill="#FFFFFF" points="667.14,388.977 663.328,382.835 670.954,382.835 	"/>
	<polygon fill="#FFFFFF" points="692.45,379.775 688.639,373.633 696.263,373.633 	"/>
	<polygon fill="#FFFFFF" points="677.518,409.869 681.331,416.017 673.704,416.017 	"/>
	<polygon fill="#FFFFFF" points="707.928,427.455 711.741,433.607 704.116,433.607 	"/>
	<polygon fill="#FFFFFF" points="707.599,462.131 711.411,468.279 703.785,468.279 	"/>
	<polygon fill="#FFFFFF" points="732.578,435.997 736.396,442.149 728.765,442.149 	"/>
	<polygon fill="#FFFFFF" points="687.597,391.79 691.409,397.938 683.785,397.938 	"/>
	<polygon fill="#FFFFFF" points="723.864,400.992 727.682,407.14 720.057,407.14 	"/>
	<polygon fill="#FFFFFF" points="672.48,383.026 676.292,389.178 668.666,389.178 	"/>
</g>
<g opacity="0.7">
	<polygon fill="#FFFFFF" points="708.31,406.599 699.292,392.063 717.325,392.063 	"/>
	<polygon fill="#FFFFFF" points="738.225,389.173 729.208,374.643 747.241,374.643 	"/>
	<polygon fill="#FFFFFF" points="748.416,371.526 739.404,357 757.422,357 	"/>
	<polygon fill="#FFFFFF" points="748.303,406.599 739.285,392.063 757.31,392.063 	"/>
	<polygon fill="#FFFFFF" points="748.298,375.303 757.31,389.833 739.285,389.833 	"/>
	<polygon fill="#FFFFFF" points="738.487,322.758 747.51,337.292 729.476,337.292 	"/>
	<polygon fill="#FFFFFF" points="748.57,410.551 757.588,425.085 739.563,425.085 	"/>
	<polygon fill="#FFFFFF" points="743.408,432.887 739.585,426.743 747.21,426.743 	"/>
	<polygon fill="#FFFFFF" points="723.35,362.797 719.536,356.645 727.163,356.645 	"/>
	<polygon fill="#FFFFFF" points="733.375,362.797 729.559,356.645 737.184,356.645 	"/>
	<polygon fill="#FFFFFF" points="728.609,371.67 724.797,365.518 732.423,365.518 	"/>
	<polygon fill="#FFFFFF" points="758.515,389.416 754.712,383.272 762.333,383.272 	"/>
	<polygon fill="#FFFFFF" points="753.095,380.212 749.282,374.071 756.906,374.071 	"/>
	<polygon fill="#FFFFFF" points="763.285,380.212 759.474,374.071 767.1,374.071 	"/>
	<polygon fill="#FFFFFF" points="758.689,424.266 754.872,418.113 762.493,418.113 	"/>
	<polygon fill="#FFFFFF" points="753.424,415.223 749.611,409.077 757.237,409.077 	"/>
	<polygon fill="#FFFFFF" points="763.451,415.223 759.638,409.077 767.264,409.077 	"/>
	<polygon fill="#FFFFFF" points="738.245,353.698 734.432,347.552 742.063,347.552 	"/>
	<polygon fill="#FFFFFF" points="743.408,345.372 739.585,339.23 747.21,339.23 	"/>
	<polygon fill="#FFFFFF" points="717.98,336.829 714.174,330.683 721.794,330.683 	"/>
	<polygon fill="#FFFFFF" points="743.29,327.627 739.481,321.475 747.103,321.475 	"/>
	<polygon fill="#FFFFFF" points="728.352,357.717 732.176,363.859 724.545,363.859 	"/>
	<polygon fill="#FFFFFF" points="758.433,409.979 762.245,416.125 754.619,416.125 	"/>
	<polygon fill="#FFFFFF" points="783.417,383.845 787.229,389.997 779.608,389.997 	"/>
	<polygon fill="#FFFFFF" points="738.436,339.642 742.254,345.784 734.628,345.784 	"/>
	<polygon fill="#FFFFFF" points="774.704,348.845 778.526,354.986 770.896,354.986 	"/>
	<polygon fill="#FFFFFF" points="723.318,330.878 727.137,337.03 719.511,337.03 	"/>
</g>
<rect x="657.178" y="337.309" opacity="0.7" fill="none" width="131.901" height="131.902"/>
<rect x="657.178" y="337.309" opacity="0.7" fill="none" width="131.901" height="131.902"/>
<rect x="738.873" y="337.309" fill="none" width="131.903" height="131.902"/>
<g>
	<polygon fill="#FFFFFF" points="870.482,458.746 879.499,444.222 861.472,444.222 	"/>
	<polygon fill="#FFFFFF" points="840.572,441.325 849.584,426.796 831.556,426.796 	"/>
	<polygon fill="#FFFFFF" points="830.381,423.684 839.394,409.16 821.37,409.16 	"/>
	<polygon fill="#FFFFFF" points="830.489,458.746 839.502,444.222 821.479,444.222 	"/>
	<polygon fill="#FFFFFF" points="799.92,476.332 808.932,461.802 790.913,461.802 	"/>
	<polygon fill="#FFFFFF" points="860.626,405.388 869.638,390.857 851.609,390.857 	"/>
	<polygon fill="#FFFFFF" points="830.494,427.455 821.479,441.98 839.502,441.98 	"/>
	<polygon fill="#FFFFFF" points="820.138,410.194 811.122,424.729 829.155,424.729 	"/>
	<polygon fill="#FFFFFF" points="840.517,410.524 831.505,425.055 849.527,425.055 	"/>
	<polygon fill="#FFFFFF" points="840.3,374.911 831.288,389.44 849.312,389.44 	"/>
	<polygon fill="#FFFFFF" points="850.384,392.444 841.366,406.974 859.39,406.974 	"/>
	<polygon fill="#FFFFFF" points="790.336,392.341 781.319,406.866 799.344,406.866 	"/>
	<polygon fill="#FFFFFF" points="830.216,462.708 821.205,477.238 839.229,477.238 	"/>
	<polygon fill="#FFFFFF" points="860.518,410.009 841.424,442.103 879.607,442.103 	"/>
	<polygon fill="#FFFFFF" points="810.39,427.596 791.295,459.689 829.479,459.689 	"/>
	<polygon fill="#FFFFFF" points="800.188,440.799 819.282,408.706 781.104,408.706 	"/>
	<polygon fill="#FFFFFF" points="835.39,485.044 839.202,478.897 831.582,478.897 	"/>
	<polygon fill="#FFFFFF" points="855.443,414.944 859.256,408.804 851.63,408.804 	"/>
	<polygon fill="#FFFFFF" points="845.416,414.944 849.229,408.804 841.604,408.804 	"/>
	<polygon fill="#FFFFFF" points="850.183,423.817 854.001,417.676 846.374,417.676 	"/>
	<polygon fill="#FFFFFF" points="820.272,441.572 824.085,435.421 816.46,435.421 	"/>
	<polygon fill="#FFFFFF" points="825.692,432.371 829.51,426.219 821.885,426.219 	"/>
	<polygon fill="#FFFFFF" points="815.507,432.371 819.319,426.219 811.698,426.219 	"/>
	<polygon fill="#FFFFFF" points="820.107,476.413 823.92,470.268 816.295,470.268 	"/>
	<polygon fill="#FFFFFF" points="825.363,467.377 829.181,461.234 821.556,461.234 	"/>
	<polygon fill="#FFFFFF" points="815.341,467.377 819.154,461.234 811.534,461.234 	"/>
	<polygon fill="#FFFFFF" points="840.541,405.856 844.359,399.705 836.733,399.705 	"/>
	<polygon fill="#FFFFFF" points="845.364,397.53 849.178,391.378 841.553,391.378 	"/>
	<polygon fill="#FFFFFF" points="835.39,397.53 839.202,391.378 831.582,391.378 	"/>
	<polygon fill="#FFFFFF" points="860.812,388.977 864.625,382.835 856.998,382.835 	"/>
	<polygon fill="#FFFFFF" points="835.504,379.775 839.315,373.633 831.689,373.633 	"/>
	<polygon fill="#FFFFFF" points="850.435,409.869 846.622,416.017 854.248,416.017 	"/>
	<polygon fill="#FFFFFF" points="820.025,427.455 816.212,433.607 823.837,433.607 	"/>
	<polygon fill="#FFFFFF" points="820.354,462.131 816.541,468.279 824.167,468.279 	"/>
	<polygon fill="#FFFFFF" points="795.376,435.997 791.558,442.149 799.188,442.149 	"/>
	<polygon fill="#FFFFFF" points="840.355,391.79 836.543,397.938 844.169,397.938 	"/>
	<polygon fill="#FFFFFF" points="804.088,400.992 800.271,407.14 807.896,407.14 	"/>
	<polygon fill="#FFFFFF" points="855.474,383.026 851.661,389.178 859.287,389.178 	"/>
</g>
<g>
	<polygon fill="#FFFFFF" points="819.645,406.599 828.66,392.063 810.627,392.063 	"/>
	<polygon fill="#FFFFFF" points="789.729,389.173 798.745,374.643 780.712,374.643 	"/>
	<polygon fill="#FFFFFF" points="779.537,371.526 788.548,357 770.53,357 	"/>
	<polygon fill="#FFFFFF" points="779.65,406.599 788.667,392.063 770.645,392.063 	"/>
	<polygon fill="#FFFFFF" points="779.656,375.303 770.645,389.833 788.667,389.833 	"/>
	<polygon fill="#FFFFFF" points="789.466,322.758 780.444,337.292 798.477,337.292 	"/>
	<polygon fill="#FFFFFF" points="779.382,410.551 770.366,425.085 788.389,425.085 	"/>
	<polygon fill="#FFFFFF" points="784.545,432.887 788.368,426.743 780.742,426.743 	"/>
	<polygon fill="#FFFFFF" points="804.604,362.797 808.416,356.645 800.791,356.645 	"/>
	<polygon fill="#FFFFFF" points="794.577,362.797 798.395,356.645 790.77,356.645 	"/>
	<polygon fill="#FFFFFF" points="799.344,371.67 803.156,365.518 795.53,365.518 	"/>
	<polygon fill="#FFFFFF" points="769.438,389.416 773.241,383.272 765.62,383.272 	"/>
	<polygon fill="#FFFFFF" points="774.857,380.212 778.672,374.071 771.045,374.071 	"/>
	<polygon fill="#FFFFFF" points="764.667,380.212 768.479,374.071 760.854,374.071 	"/>
	<polygon fill="#FFFFFF" points="769.263,424.266 773.082,418.113 765.461,418.113 	"/>
	<polygon fill="#FFFFFF" points="774.529,415.223 778.342,409.077 770.716,409.077 	"/>
	<polygon fill="#FFFFFF" points="764.502,415.223 768.315,409.077 760.689,409.077 	"/>
	<polygon fill="#FFFFFF" points="789.708,353.698 793.521,347.552 785.89,347.552 	"/>
	<polygon fill="#FFFFFF" points="784.545,345.372 788.368,339.23 780.742,339.23 	"/>
	<polygon fill="#FFFFFF" points="809.973,336.829 813.779,330.683 806.159,330.683 	"/>
	<polygon fill="#FFFFFF" points="784.663,327.627 788.472,321.475 780.851,321.475 	"/>
	<polygon fill="#FFFFFF" points="799.601,357.717 795.777,363.859 803.409,363.859 	"/>
	<polygon fill="#FFFFFF" points="769.521,409.979 765.708,416.125 773.333,416.125 	"/>
	<polygon fill="#FFFFFF" points="744.537,383.845 740.724,389.997 748.345,389.997 	"/>
	<polygon fill="#FFFFFF" points="789.518,339.642 785.699,345.784 793.324,345.784 	"/>
	<polygon fill="#FFFFFF" points="753.25,348.845 749.426,354.986 757.057,354.986 	"/>
	<polygon fill="#FFFFFF" points="804.634,330.878 800.816,337.03 808.442,337.03 	"/>
</g>
<rect x="738.873" y="337.309" fill="none" width="131.903" height="131.902"/>
<rect x="444.162" y="337.309" opacity="0.7" fill="none" width="131.903" height="131.902"/>
<g opacity="0.7">
	<polygon fill="#FFFFFF" points="444.456,458.746 435.439,444.222 453.468,444.222 	"/>
	<polygon fill="#FFFFFF" points="474.366,441.325 465.354,426.796 483.383,426.796 	"/>
	<polygon fill="#FFFFFF" points="484.557,423.684 475.546,409.16 493.569,409.16 	"/>
	<polygon fill="#FFFFFF" points="484.45,458.746 475.438,444.222 493.46,444.222 	"/>
	<polygon fill="#FFFFFF" points="515.019,476.332 506.007,461.802 524.024,461.802 	"/>
	<polygon fill="#FFFFFF" points="454.313,405.388 445.301,390.857 463.329,390.857 	"/>
	<polygon fill="#FFFFFF" points="484.444,427.455 493.46,441.98 475.438,441.98 	"/>
	<polygon fill="#FFFFFF" points="494.801,410.194 503.816,424.729 485.784,424.729 	"/>
	<polygon fill="#FFFFFF" points="474.423,410.524 483.435,425.055 465.41,425.055 	"/>
	<polygon fill="#FFFFFF" points="474.64,374.911 483.649,389.44 465.629,389.44 	"/>
	<polygon fill="#FFFFFF" points="464.555,392.444 473.572,406.974 455.549,406.974 	"/>
	<polygon fill="#FFFFFF" points="524.603,392.341 533.619,406.866 515.596,406.866 	"/>
	<polygon fill="#FFFFFF" points="484.723,462.708 493.734,477.238 475.71,477.238 	"/>
	<polygon fill="#FFFFFF" points="454.421,410.009 473.516,442.103 435.331,442.103 	"/>
	<polygon fill="#FFFFFF" points="504.55,427.596 523.645,459.689 485.459,459.689 	"/>
	<polygon fill="#FFFFFF" points="514.751,440.799 495.656,408.706 533.835,408.706 	"/>
	<polygon fill="#FFFFFF" points="479.55,485.044 475.736,478.897 483.356,478.897 	"/>
	<polygon fill="#FFFFFF" points="459.496,414.944 455.684,408.804 463.31,408.804 	"/>
	<polygon fill="#FFFFFF" points="469.522,414.944 465.71,408.804 473.336,408.804 	"/>
	<polygon fill="#FFFFFF" points="464.756,423.817 460.938,417.676 468.563,417.676 	"/>
	<polygon fill="#FFFFFF" points="494.667,441.572 490.854,435.421 498.479,435.421 	"/>
	<polygon fill="#FFFFFF" points="489.246,432.371 485.429,426.219 493.054,426.219 	"/>
	<polygon fill="#FFFFFF" points="499.433,432.371 495.62,426.219 503.24,426.219 	"/>
	<polygon fill="#FFFFFF" points="494.831,476.413 491.02,470.268 498.644,470.268 	"/>
	<polygon fill="#FFFFFF" points="489.576,467.377 485.758,461.234 493.384,461.234 	"/>
	<polygon fill="#FFFFFF" points="499.598,467.377 495.785,461.234 503.405,461.234 	"/>
	<polygon fill="#FFFFFF" points="474.396,405.856 470.579,399.705 478.205,399.705 	"/>
	<polygon fill="#FFFFFF" points="469.574,397.53 465.761,391.378 473.387,391.378 	"/>
	<polygon fill="#FFFFFF" points="479.55,397.53 475.736,391.378 483.356,391.378 	"/>
	<polygon fill="#FFFFFF" points="454.127,388.977 450.315,382.835 457.94,382.835 	"/>
	<polygon fill="#FFFFFF" points="479.437,379.775 475.623,373.633 483.249,373.633 	"/>
	<polygon fill="#FFFFFF" points="464.504,409.869 468.317,416.017 460.69,416.017 	"/>
	<polygon fill="#FFFFFF" points="494.913,427.455 498.728,433.607 491.102,433.607 	"/>
	<polygon fill="#FFFFFF" points="494.584,462.131 498.397,468.279 490.771,468.279 	"/>
	<polygon fill="#FFFFFF" points="519.563,435.997 523.381,442.149 515.751,442.149 	"/>
	<polygon fill="#FFFFFF" points="474.582,391.79 478.396,397.938 470.771,397.938 	"/>
	<polygon fill="#FFFFFF" points="510.85,400.992 514.668,407.14 507.043,407.14 	"/>
	<polygon fill="#FFFFFF" points="459.465,383.026 463.277,389.178 455.651,389.178 	"/>
</g>
<g opacity="0.7">
	<polygon fill="#FFFFFF" points="495.295,406.599 486.278,392.063 504.312,392.063 	"/>
	<polygon fill="#FFFFFF" points="525.21,389.173 516.193,374.643 534.228,374.643 	"/>
	<polygon fill="#FFFFFF" points="535.401,371.526 526.391,357 544.408,357 	"/>
	<polygon fill="#FFFFFF" points="535.288,406.599 526.271,392.063 544.295,392.063 	"/>
	<polygon fill="#FFFFFF" points="535.283,375.303 544.295,389.833 526.271,389.833 	"/>
	<polygon fill="#FFFFFF" points="525.474,322.758 534.496,337.292 516.462,337.292 	"/>
	<polygon fill="#FFFFFF" points="535.557,410.551 544.572,425.085 526.55,425.085 	"/>
	<polygon fill="#FFFFFF" points="530.394,432.887 526.571,426.743 534.196,426.743 	"/>
	<polygon fill="#FFFFFF" points="510.334,362.797 506.522,356.645 514.148,356.645 	"/>
	<polygon fill="#FFFFFF" points="520.361,362.797 516.544,356.645 524.17,356.645 	"/>
	<polygon fill="#FFFFFF" points="515.596,371.67 511.783,365.518 519.409,365.518 	"/>
	<polygon fill="#FFFFFF" points="545.5,389.416 541.698,383.272 549.318,383.272 	"/>
	<polygon fill="#FFFFFF" points="540.081,380.212 536.269,374.071 543.893,374.071 	"/>
	<polygon fill="#FFFFFF" points="550.271,380.212 546.459,374.071 554.084,374.071 	"/>
	<polygon fill="#FFFFFF" points="545.676,424.266 541.858,418.113 549.479,418.113 	"/>
	<polygon fill="#FFFFFF" points="540.41,415.223 536.598,409.077 544.224,409.077 	"/>
	<polygon fill="#FFFFFF" points="550.438,415.223 546.624,409.077 554.249,409.077 	"/>
	<polygon fill="#FFFFFF" points="525.23,353.698 521.418,347.552 529.049,347.552 	"/>
	<polygon fill="#FFFFFF" points="530.394,345.372 526.571,339.23 534.196,339.23 	"/>
	<polygon fill="#FFFFFF" points="504.967,336.829 501.159,330.683 508.779,330.683 	"/>
	<polygon fill="#FFFFFF" points="530.275,327.627 526.468,321.475 534.088,321.475 	"/>
	<polygon fill="#FFFFFF" points="515.338,357.717 519.16,363.859 511.53,363.859 	"/>
	<polygon fill="#FFFFFF" points="545.418,409.979 549.231,416.125 541.605,416.125 	"/>
	<polygon fill="#FFFFFF" points="570.402,383.845 574.216,389.997 566.595,389.997 	"/>
	<polygon fill="#FFFFFF" points="525.422,339.642 529.239,345.784 521.614,345.784 	"/>
	<polygon fill="#FFFFFF" points="561.689,348.845 565.513,354.986 557.882,354.986 	"/>
	<polygon fill="#FFFFFF" points="510.305,330.878 514.122,337.03 506.496,337.03 	"/>
</g>
<rect x="444.162" y="337.309" opacity="0.7" fill="none" width="131.903" height="131.902"/>
<rect x="525.859" y="337.309" opacity="0.7" fill="none" width="131.903" height="131.902"/>
<g opacity="0.7">
	<polygon fill="#FFFFFF" points="657.468,458.746 666.485,444.222 648.457,444.222 	"/>
	<polygon fill="#FFFFFF" points="627.559,441.325 636.57,426.796 618.542,426.796 	"/>
	<polygon fill="#FFFFFF" points="617.476,458.746 626.486,444.222 608.464,444.222 	"/>
	<polygon fill="#FFFFFF" points="586.905,476.332 595.917,461.802 577.899,461.802 	"/>
	<polygon fill="#FFFFFF" points="647.612,405.388 656.623,390.857 638.595,390.857 	"/>
	<polygon fill="#FFFFFF" points="617.48,427.455 608.464,441.98 626.486,441.98 	"/>
	<polygon fill="#FFFFFF" points="627.502,410.524 618.49,425.055 636.514,425.055 	"/>
	<polygon fill="#FFFFFF" points="627.286,374.911 618.273,389.44 636.296,389.44 	"/>
	<polygon fill="#FFFFFF" points="637.37,392.444 628.353,406.974 646.375,406.974 	"/>
	<polygon fill="#FFFFFF" points="577.322,392.341 568.307,406.866 586.329,406.866 	"/>
	<polygon fill="#FFFFFF" points="617.202,462.708 608.19,477.238 626.214,477.238 	"/>
	<polygon fill="#FFFFFF" points="647.503,410.009 628.409,442.103 666.594,442.103 	"/>
	<polygon fill="#FFFFFF" points="622.375,485.044 626.188,478.897 618.567,478.897 	"/>
	<polygon fill="#FFFFFF" points="642.429,414.944 646.241,408.804 638.615,408.804 	"/>
	<polygon fill="#FFFFFF" points="632.402,414.944 636.214,408.804 628.59,408.804 	"/>
	<polygon fill="#FFFFFF" points="637.168,423.817 640.986,417.676 633.359,417.676 	"/>
	<polygon fill="#FFFFFF" points="607.259,441.572 611.071,435.421 603.445,435.421 	"/>
	<polygon fill="#FFFFFF" points="602.493,432.371 606.305,426.219 598.685,426.219 	"/>
	<polygon fill="#FFFFFF" points="607.094,476.413 610.905,470.268 603.28,470.268 	"/>
	<polygon fill="#FFFFFF" points="612.349,467.377 616.167,461.234 608.542,461.234 	"/>
	<polygon fill="#FFFFFF" points="602.327,467.377 606.14,461.234 598.52,461.234 	"/>
	<polygon fill="#FFFFFF" points="627.527,405.856 631.346,399.705 623.719,399.705 	"/>
	<polygon fill="#FFFFFF" points="632.351,397.53 636.164,391.378 628.538,391.378 	"/>
	<polygon fill="#FFFFFF" points="622.375,397.53 626.188,391.378 618.567,391.378 	"/>
	<polygon fill="#FFFFFF" points="647.798,388.977 651.609,382.835 643.984,382.835 	"/>
	<polygon fill="#FFFFFF" points="622.488,379.775 626.302,373.633 618.676,373.633 	"/>
	<polygon fill="#FFFFFF" points="637.42,409.869 633.607,416.017 641.233,416.017 	"/>
	<polygon fill="#FFFFFF" points="607.012,427.455 603.198,433.607 610.823,433.607 	"/>
	<polygon fill="#FFFFFF" points="607.341,462.131 603.527,468.279 611.154,468.279 	"/>
	<polygon fill="#FFFFFF" points="582.361,435.997 578.544,442.149 586.174,442.149 	"/>
	<polygon fill="#FFFFFF" points="627.342,391.79 623.529,397.938 631.155,397.938 	"/>
	<polygon fill="#FFFFFF" points="591.074,400.992 587.256,407.14 594.882,407.14 	"/>
	<polygon fill="#FFFFFF" points="642.46,383.026 638.646,389.178 646.271,389.178 	"/>
</g>
<g opacity="0.7">
	<polygon fill="#FFFFFF" points="576.715,389.173 585.731,374.643 567.698,374.643 	"/>
	<polygon fill="#FFFFFF" points="566.523,371.526 575.534,357 557.517,357 	"/>
	<polygon fill="#FFFFFF" points="566.637,406.599 575.652,392.063 557.63,392.063 	"/>
	<polygon fill="#FFFFFF" points="566.642,375.303 557.63,389.833 575.652,389.833 	"/>
	<polygon fill="#FFFFFF" points="576.451,322.758 567.43,337.292 585.463,337.292 	"/>
	<polygon fill="#FFFFFF" points="566.368,410.551 557.352,425.085 575.375,425.085 	"/>
	<polygon fill="#FFFFFF" points="571.531,432.887 575.354,426.743 567.729,426.743 	"/>
	<polygon fill="#FFFFFF" points="591.59,362.797 595.402,356.645 587.777,356.645 	"/>
	<polygon fill="#FFFFFF" points="581.563,362.797 585.381,356.645 577.755,356.645 	"/>
	<polygon fill="#FFFFFF" points="586.329,371.67 590.141,365.518 582.516,365.518 	"/>
	<polygon fill="#FFFFFF" points="556.424,389.416 560.227,383.272 552.606,383.272 	"/>
	<polygon fill="#FFFFFF" points="561.844,380.212 565.657,374.071 558.031,374.071 	"/>
	<polygon fill="#FFFFFF" points="551.653,380.212 555.465,374.071 547.841,374.071 	"/>
	<polygon fill="#FFFFFF" points="556.248,424.266 560.067,418.113 552.446,418.113 	"/>
	<polygon fill="#FFFFFF" points="561.515,415.223 565.327,409.077 557.701,409.077 	"/>
	<polygon fill="#FFFFFF" points="551.487,415.223 555.302,409.077 547.675,409.077 	"/>
	<polygon fill="#FFFFFF" points="576.694,353.698 580.506,347.552 572.875,347.552 	"/>
	<polygon fill="#FFFFFF" points="571.531,345.372 575.354,339.23 567.729,339.23 	"/>
	<polygon fill="#FFFFFF" points="596.958,336.829 600.766,330.683 593.146,330.683 	"/>
	<polygon fill="#FFFFFF" points="571.649,327.627 575.457,321.475 567.837,321.475 	"/>
	<polygon fill="#FFFFFF" points="586.587,357.717 582.764,363.859 590.395,363.859 	"/>
	<polygon fill="#FFFFFF" points="556.506,409.979 552.694,416.125 560.319,416.125 	"/>
	<polygon fill="#FFFFFF" points="531.522,383.845 527.709,389.997 535.329,389.997 	"/>
	<polygon fill="#FFFFFF" points="576.503,339.642 572.686,345.784 580.311,345.784 	"/>
	<polygon fill="#FFFFFF" points="540.234,348.845 536.412,354.986 544.043,354.986 	"/>
	<polygon fill="#FFFFFF" points="591.62,330.878 587.802,337.03 595.429,337.03 	"/>
</g>
<rect x="525.859" y="337.309" opacity="0.7" fill="none" width="131.903" height="131.902"/>
<rect x="525.859" y="337.309" opacity="0.7" fill="none" width="131.903" height="131.902"/>
</svg>
