<?xml version="1.0" encoding="utf-8"?>
<!-- Generator: Adobe Illustrator 16.0.0, SVG Export Plug-In . SVG Version: 6.00 Build 0)  -->
<!DOCTYPE svg PUBLIC "-//W3C//DTD SVG 1.1//EN" "http://www.w3.org/Graphics/SVG/1.1/DTD/svg11.dtd">
<svg version="1.1" id="Layer_1" xmlns="http://www.w3.org/2000/svg" xmlns:xlink="http://www.w3.org/1999/xlink" x="0px" y="0px"
	 width="612px" height="136.462px" viewBox="0 300.695 612 136.462" enable-background="new 0 300.695 612 136.462"
	 xml:space="preserve">
<g>
	<path fill="#FFFFFF" d="M75.379,300.105c-18.203,0-29.522,1.867-40.818,13.391c-10.909,11.129-11.281,27.186-11.28,32.624v184.664
		c0,5.438,0.371,21.494,11.28,32.623c11.296,11.523,22.616,13.391,40.818,13.391h455.243c18.203,0,29.521-1.868,40.818-13.391
		c10.908-11.129,11.281-27.186,11.279-32.623V346.12c0.002-5.438-0.371-21.495-11.279-32.624
		c-11.297-11.523-22.615-13.391-40.818-13.391H75.379z"/>
	<path fill="#FFFFFF" d="M580.452,530.784c0,16.693-5.781,26.088-10.631,31.037c-10.598,10.807-21.084,12.709-39.199,12.709H75.379
		c-18.117,0-28.603-1.902-39.199-12.711c-4.85-4.947-10.632-14.346-10.632-31.023V346.12c0-16.69,5.782-26.089,10.632-31.036
		c10.595-10.809,21.082-12.711,39.199-12.711h455.243c18.115,0,28.602,1.902,39.199,12.711c4.85,4.947,10.631,14.342,10.631,30.995
		V530.784z"/>
	<path fill="#FFFFFF" d="M98.703,577.128c0,0.107,0.037,0.203,0.061,0.303h-0.021c0.008,0.035,0.03,0.063,0.041,0.096
		c0.023,0.07,0.05,0.135,0.084,0.199c0.04,0.076,0.087,0.143,0.141,0.209c0.043,0.053,0.083,0.104,0.133,0.148
		c0.072,0.064,0.155,0.113,0.241,0.162c0.049,0.027,0.091,0.059,0.143,0.08c0.146,0.057,0.301,0.094,0.468,0.094h18.856
		c0.167,0,0.322-0.037,0.468-0.094c0.052-0.021,0.094-0.053,0.143-0.08c0.086-0.049,0.168-0.098,0.241-0.162
		c0.05-0.045,0.09-0.096,0.133-0.148c0.054-0.066,0.101-0.133,0.141-0.209c0.034-0.064,0.062-0.129,0.084-0.199
		c0.011-0.033,0.033-0.061,0.041-0.096h-0.021c0.024-0.1,0.061-0.195,0.061-0.303v-0.684H98.703V577.128z"/>
	<path fill="#FFFFFF" d="M138.715,577.128c0,0.107,0.036,0.203,0.062,0.303h-0.021c0.008,0.035,0.029,0.063,0.041,0.096
		c0.022,0.07,0.05,0.135,0.084,0.199c0.04,0.076,0.088,0.143,0.141,0.209c0.043,0.053,0.082,0.104,0.133,0.148
		c0.072,0.064,0.155,0.113,0.241,0.162c0.049,0.027,0.091,0.059,0.144,0.08c0.145,0.057,0.301,0.094,0.467,0.094h37.984
		c0.167,0,0.322-0.037,0.469-0.094c0.052-0.021,0.094-0.053,0.143-0.08c0.086-0.049,0.168-0.098,0.24-0.162
		c0.051-0.045,0.092-0.098,0.135-0.15c0.053-0.064,0.1-0.131,0.139-0.207c0.035-0.064,0.063-0.129,0.086-0.201
		c0.012-0.031,0.032-0.059,0.041-0.094h-0.021c0.024-0.1,0.061-0.195,0.061-0.303v-0.684h-40.565V577.128z"/>
	<path fill="#FFFFFF" d="M190.012,576.63c0,0.107,0.036,0.203,0.062,0.303h-0.021c0.008,0.035,0.029,0.063,0.041,0.096
		c0.022,0.07,0.049,0.135,0.084,0.197c0.04,0.076,0.088,0.145,0.143,0.211c0.041,0.053,0.08,0.102,0.131,0.146
		c0.072,0.066,0.156,0.115,0.243,0.164c0.048,0.025,0.089,0.059,0.141,0.078c0.146,0.059,0.302,0.096,0.468,0.096h37.984
		c0.167,0,0.322-0.037,0.469-0.096c0.051-0.02,0.093-0.051,0.141-0.078c0.088-0.049,0.17-0.098,0.244-0.164
		c0.049-0.045,0.089-0.096,0.131-0.146c0.055-0.066,0.102-0.133,0.143-0.209c0.033-0.064,0.061-0.129,0.084-0.199
		c0.012-0.033,0.032-0.061,0.041-0.096h-0.021c0.024-0.1,0.061-0.195,0.061-0.303v-0.395h-40.565V576.63z"/>
	<path fill="#FFFFFF" d="M215.438,298.449c-0.176-0.057-0.357-0.096-0.551-0.096h-60.292c-0.193,0-0.376,0.039-0.55,0.096
		c-0.027,0.008-0.054,0.014-0.08,0.023c-0.166,0.064-0.318,0.15-0.457,0.258c-0.02,0.014-0.035,0.027-0.053,0.043
		c-0.293,0.242-0.508,0.572-0.6,0.953l0,0l0,0c-0.033,0.135-0.055,0.275-0.055,0.422v0.547h63.88v-0.547
		c0-0.557-0.258-1.047-0.653-1.375c-0.019-0.016-0.035-0.029-0.053-0.043c-0.139-0.107-0.292-0.193-0.459-0.258
		C215.491,298.463,215.464,298.457,215.438,298.449z"/>
	<path fill="#3397E1" d="M46.514,325.215c-2.963,3.021-6.495,9.102-6.494,20.905v21.063c0.137,1.072,0.782,2.627,3.354,2.781
		c3.531,0.213,8.188,0.646,11.77,4.146c2.762,2.697,4.075,6.189,4.075,9.82c0,7.842,0,100.654,0,108.494
		c0,3.631-1.313,7.123-4.075,9.822c-3.582,3.498-8.239,3.934-11.77,4.145c-2.572,0.154-3.217,1.711-3.354,2.781v21.619
		c0,11.797,3.532,17.875,6.494,20.898c6.966,7.105,13.619,8.369,28.866,8.369h455.243c15.246,0,21.9-1.264,28.865-8.371
		c2.963-3.021,6.496-9.102,6.494-20.904V346.112c0-11.798-3.531-17.876-6.494-20.897c-6.965-7.105-13.619-8.371-28.865-8.371H75.379
		C60.133,316.844,53.479,318.109,46.514,325.215z"/>
	<g>
		<g>
			<g>
				<circle fill="#FFFFFF" cx="28.312" cy="519.917" r="4.26"/>
			</g>
		</g>
	</g>
	<g>
		<defs>
			<path id="SVGID_1_" d="M45.321,421.397c1.256,0,2.274,1.018,2.274,2.273v29.795c0,1.256-1.018,2.273-2.274,2.273l0,0
				c-1.256,0-2.274-1.018-2.274-2.273v-29.795C43.047,422.415,44.065,421.397,45.321,421.397L45.321,421.397z"/>
		</defs>
		<use xlink:href="#SVGID_1_"  overflow="visible" fill="#FFFFFF"/>
		<clipPath id="SVGID_2_">
			<use xlink:href="#SVGID_1_"  overflow="visible"/>
		</clipPath>
	</g>
	<g>
		<g>
			<g>
				<path fill="#FFFFFF" d="M56.693,536.399c0.319-0.096,0.654-0.492,0.654-1.158c0-1.266-1.225-1.736-2.727-1.695v0.063
					c0.56,0.215,1.057,0.791,1.057,1.748c0,1.258-0.863,2.287-2.381,2.287c-1.523,0-2.434-1.094-2.434-2.527
					c0-1.297,0.77-2.602,3.58-2.602c2.538,0,3.847,0.885,3.847,2.748c0,1.371-0.785,2.109-1.596,2.199V536.399z M51.805,535.175
					c0,0.773,0.555,1.412,1.492,1.412c0.979,0,1.46-0.664,1.46-1.434c0-0.748-0.477-1.434-1.439-1.434
					S51.805,534.347,51.805,535.175z"/>
				<path fill="#FFFFFF" d="M53.134,530.157c0-0.459,0.335-0.811,0.816-0.811c0.471,0,0.801,0.352,0.801,0.811
					c0,0.43-0.33,0.785-0.801,0.785C53.464,530.942,53.134,530.593,53.134,530.157z M56.641,530.157c0-0.459,0.33-0.811,0.816-0.811
					c0.471,0,0.795,0.352,0.795,0.811c0,0.43-0.325,0.785-0.795,0.785C56.971,530.942,56.641,530.593,56.641,530.157z"/>
				<path fill="#FFFFFF" d="M51.015,523.458h4.773v-0.916h0.968v0.916h1.403v1.02h-1.403v3.471h-0.984
					c-1.591-0.879-3.171-1.92-4.757-2.916V523.458z M55.788,524.478h-3.841v0.059c1.198,0.801,2.528,1.654,3.794,2.375h0.047
					V524.478z"/>
				<path fill="#FFFFFF" d="M58.159,519.599h-5.972v0.053l1.178,1.648h-1.11l-1.24-1.701v-1.063h7.144V519.599z"/>
			</g>
		</g>
		<g>
			<path fill="#FFFFFF" d="M57.837,358.651c0.178,0,0.323,0.145,0.323,0.322v0.969c0,0.178-0.145,0.322-0.323,0.322H51.34
				c-0.178,0-0.322-0.145-0.322-0.322v-0.969c0-0.178,0.144-0.322,0.322-0.322H57.837z"/>
			<path fill="#FFFFFF" d="M57.837,361.601c0.178,0,0.323,0.145,0.323,0.322v0.969c0,0.178-0.145,0.322-0.323,0.322h-4.754
				c-0.178,0-0.323-0.145-0.323-0.322v-0.969c0-0.178,0.145-0.322,0.323-0.322H57.837z"/>
			<path fill="#FFFFFF" d="M57.837,364.55c0.178,0,0.323,0.145,0.323,0.322v0.969c0,0.178-0.145,0.322-0.323,0.322h-3.302
				c-0.178,0-0.323-0.145-0.323-0.322v-0.969c0-0.178,0.145-0.322,0.323-0.322H57.837z"/>
			<path fill="#FFFFFF" d="M57.837,367.499c0.178,0,0.323,0.145,0.323,0.322v0.969c0,0.178-0.145,0.322-0.323,0.322h-2.141
				c-0.178,0-0.323-0.145-0.323-0.322v-0.969c0-0.178,0.145-0.322,0.323-0.322H57.837z"/>
		</g>
		<g>
			<path fill-rule="evenodd" clip-rule="evenodd" fill="#FFFFFF" d="M54.275,353.778c-0.428,0.439-0.841,0.863-1.255,1.287
				c-2.686-2.637-2.787-7.254,0.003-10.024c0.421,0.417,0.842,0.835,1.276,1.267c-0.984,1.049-1.514,2.291-1.517,3.736
				C52.78,351.493,53.3,352.739,54.275,353.778z"/>
			<path fill-rule="evenodd" clip-rule="evenodd" fill="#FFFFFF" d="M56.142,351.942c-0.418,0.428-0.832,0.85-1.247,1.273
				c-1.694-1.645-1.742-4.605-0.017-6.301c0.424,0.416,0.847,0.83,1.271,1.246C55.165,349.427,55.163,350.685,56.142,351.942z"/>
			<path fill-rule="evenodd" clip-rule="evenodd" fill="#FFFFFF" d="M56.781,348.817c0.426,0.42,0.844,0.832,1.256,1.238
				c-0.417,0.42-0.83,0.834-1.243,1.248C56.198,350.763,56.092,349.53,56.781,348.817z"/>
		</g>
		<g>
			<path opacity="0.4" fill="#FFFFFF" d="M50.838,328.984v11.012c0,0.885,0.719,1.604,1.604,1.604h4.294
				c0.884,0,1.603-0.719,1.603-1.604v-11.012c0-0.883-0.719-1.604-1.603-1.604h-4.294C51.557,327.381,50.838,328.102,50.838,328.984
				z M56.736,328.021c0.531,0,0.963,0.432,0.963,0.963v11.012c0,0.531-0.432,0.963-0.963,0.963h-4.294
				c-0.531,0-0.963-0.432-0.963-0.963v-11.012c0-0.531,0.432-0.963,0.963-0.963H56.736z"/>
			<path fill="#FFFFFF" d="M56.736,328.662c0.178,0,0.323,0.145,0.323,0.322v11.012c0,0.178-0.145,0.322-0.323,0.322h-4.294
				c-0.178,0-0.323-0.145-0.323-0.322v-11.012c0-0.178,0.145-0.322,0.323-0.322H56.736z"/>
			<path fill="#FFFFFF" d="M54.588,325.848c0.477,0,0.864,0.387,0.864,0.863c-0.584,0-1.235,0-1.728,0
				C53.725,326.234,54.111,325.848,54.588,325.848z"/>
		</g>
	</g>
</g>
</svg>
